<svg height="32px" width="32px" version="1.1" id="Layer_1" xmlns="http://www.w3.org/2000/svg" xmlns:xlink="http://www.w3.org/1999/xlink"
     viewBox="0 0 293 450"
     style="enable-background:new 0 0 293 293;" xml:space="preserve">
<style type="text/css">
	.st0{fill:#00EAE4;}
	.st1{fill:#08088C;}
</style>
    <rect class="st0" width="293" height="293"/>
    <g>
	<g>
		<path class="st1" d="M202.3,81.6c-8-5-18.2-7-30.2-7H77.5v136l-30.8-30.8v-136h94.6c15.6,0,26.6,2.6,35.6,11.6l25.8,25.8
			L202.3,81.6z M210.7,89.2l27,27c5.6,5.6,8.6,13.6,8.6,24v3.2c0,15-4.6,21.8-19.2,24.4v1.8l12.8,12.8c5.2,5.2,6.8,11.6,6.8,20v6.6
			c0,24-16,34.8-43.4,34.8h-92.6L79.9,213h92.6c27.4,0,43.4-10.8,43.4-34.8v-6.6c0-18.6-8.4-26.8-32.6-27.6v-3.8
			c24.2-0.8,32.2-9,32.2-27.6v-3.2c0-7.6-1.6-14.2-5.2-19.8L210.7,89.2z M123.9,102.8h30.4c11.6,0,15.2,3,15.2,12.6v1
			c0,9.6-3.6,12.6-15.2,12.6h-30.4V102.8z M123.9,184.8v-27.6h30.4c11.6,0,15.2,3,15.2,12.6v2.4c0,9.6-3.6,12.6-15.2,12.6H123.9z"/>
	</g>
        <g>
		<path class="st1" d="M179.4,45.4v-1.7h8.5v1.7h-3.3v8.3h-2v-8.3H179.4z M192.4,43.7l2.5,7.1l2.6-7.1h2.8v10h-1.8v-8l-2.8,8h-1.6
			l-2.8-8v8h-1.8v-10H192.4z"/>
	</g>
</g>
</svg>
