<?xml version="1.0" encoding="utf-8"?>
<!-- Generator: Adobe Illustrator 15.1.0, SVG Export Plug-In . SVG Version: 6.00 Build 0)  -->
<!DOCTYPE svg PUBLIC "-//W3C//DTD SVG 1.1//EN" "http://www.w3.org/Graphics/SVG/1.1/DTD/svg11.dtd">
<svg version="1.1" id="Layer_1" xmlns="http://www.w3.org/2000/svg" xmlns:xlink="http://www.w3.org/1999/xlink" x="0px" y="0px"
	 width="20px" height="20px" viewBox="0 0 20 20" enable-background="new 0 0 20 20" xml:space="preserve">
<g>
	<linearGradient id="SVGID_1_" gradientUnits="userSpaceOnUse" x1="10.1323" y1="14.6094" x2="10.1323" y2="4.6284">
		<stop  offset="0" style="stop-color:#9BB83D"/>
		<stop  offset="1" style="stop-color:#C3D73B"/>
	</linearGradient>
	<path fill="url(#SVGID_1_)" d="M13.91,10.326c0,0.078-0.022,0.15-0.058,0.213l-0.92,1.6l-1.071,1.862
		c-0.214,0.363-0.61,0.608-1.063,0.608h-4.01c-0.241,0-0.435-0.195-0.435-0.436c0-0.077,0.022-0.15,0.058-0.213l1.047-1.822
		l0.943-1.64c0.214-0.364,0.611-0.608,1.063-0.608h4.01C13.715,9.891,13.91,10.085,13.91,10.326z M7.459,7.098l0.943,1.64
		c0.214,0.363,0.611,0.608,1.063,0.608h4.01c0.239,0,0.435-0.195,0.435-0.436c0-0.078-0.022-0.15-0.058-0.213l-0.92-1.6
		l-1.071-1.862c-0.214-0.363-0.61-0.608-1.063-0.608h-4.01c-0.241,0-0.435,0.195-0.435,0.435c0,0.078,0.022,0.15,0.058,0.213
		L7.459,7.098z"/>
	<linearGradient id="SVGID_2_" gradientUnits="userSpaceOnUse" x1="16.2217" y1="19.8711" x2="16.2217" y2="9.8911">
		<stop  offset="0" style="stop-color:#921A5B"/>
		<stop  offset="1" style="stop-color:#ED3093"/>
	</linearGradient>
	<path fill="url(#SVGID_2_)" d="M12.443,14.174c0-0.077,0.022-0.15,0.058-0.213l1.048-1.822l0.943-1.64
		c0.215-0.364,0.609-0.608,1.063-0.608h4.01c0.241,0,0.436,0.195,0.436,0.435c0,0.078-0.022,0.15-0.058,0.213l-0.921,1.6
		l-1.07,1.862c-0.215,0.363-0.61,0.608-1.064,0.608h-4.009C12.638,14.609,12.443,14.414,12.443,14.174z M18.894,17.401l-0.943-1.641
		c-0.214-0.363-0.61-0.607-1.063-0.607h-4.009c-0.24,0-0.435,0.195-0.435,0.435c0,0.078,0.021,0.151,0.058,0.215l0.919,1.599
		l1.072,1.862c0.215,0.363,0.609,0.607,1.063,0.607h4.01c0.239,0,0.436-0.194,0.436-0.436c0-0.078-0.022-0.149-0.059-0.212
		L18.894,17.401z"/>
	<linearGradient id="SVGID_3_" gradientUnits="userSpaceOnUse" x1="4.042" y1="13.9512" x2="4.042" y2="0.1289">
		<stop  offset="0" style="stop-color:#09848D"/>
		<stop  offset="0.2499" style="stop-color:#218E97"/>
		<stop  offset="0.7724" style="stop-color:#5CA8B0"/>
		<stop  offset="1" style="stop-color:#78B4BC"/>
	</linearGradient>
	<path fill="url(#SVGID_3_)" d="M3.966,6.685l-1.06,1.813C2.87,8.562,2.817,8.617,2.75,8.656C2.542,8.775,2.276,8.703,2.157,8.495
		L0.163,5.016c-0.224-0.393-0.209-0.857,0-1.225l1.083-1.855l0.931-1.593C2.213,0.28,2.265,0.225,2.333,0.186
		c0.208-0.119,0.474-0.047,0.593,0.162l1.994,3.48c0.226,0.393,0.209,0.857,0,1.223L3.966,6.685z M7.921,9.064L5.927,5.585
		C5.808,5.377,5.542,5.304,5.333,5.424C5.266,5.463,5.214,5.518,5.177,5.581L4.246,7.174L3.163,9.029
		c-0.208,0.366-0.225,0.832,0.001,1.224l1.993,3.479c0.119,0.209,0.385,0.281,0.593,0.161c0.068-0.039,0.12-0.093,0.157-0.156
		l1.06-1.814l0.954-1.635C8.13,9.922,8.146,9.457,7.921,9.064z"/>
</g>
</svg>
